<?xml version="1.0" encoding="utf-8"?>
<!-- Generator: Adobe Illustrator 23.0.5, SVG Export Plug-In . SVG Version: 6.00 Build 0)  -->
<svg version="1.1" id="Capa_1" xmlns="http://www.w3.org/2000/svg" xmlns:xlink="http://www.w3.org/1999/xlink" x="0px" y="0px"
	 viewBox="0 0 154.9 137.1" style="enable-background:new 0 0 154.9 137.1;" xml:space="preserve">
<style type="text/css">
	.st0{fill:#A8A4A6;}
	.st1{fill:#979593;}
	.st2{fill:#FFFFFF;}
	.st3{fill:#C61821;}
	.st4{fill:#F499A4;}
	.st5{fill:#72C8FB;}
	.st6{fill:none;stroke:#070707;stroke-miterlimit:10;}
	.st7{fill:none;stroke:#000000;stroke-miterlimit:10;}
</style>
<image style="display:none;overflow:visible;enable-background:new    ;" width="225" height="224" xlink:href="images.jpg"  transform="matrix(1 0 0 1 558.8571 260.5714)">
</image>
<path d="M14.7,20.8l10.6,0.3c0.5,0,1.8-0.4,2.3-0.5c9.2-3.1,12.2-7.2,14.6-15.8C43.1,2.3,46.9,2,49,3.5l19,12.7
	c0.7,0.5,1.2,1.3,1.2,2.2L69.9,54c0,1.1-0.6,2.1-1.6,2.5l-2,0.9c-2.1,0.9-6.1-0.3-7.3-2.3L47.4,36.9c-1.1-1.8-2-3.3-4-2.7
	c-9.1,2.5-17.3,3.3-26.7,0.4c-0.5-0.2-1.3-0.5-1.8-0.9c-4.6-3.1-5.9-6.7-4.2-9.8C11.5,22.4,13.1,20.8,14.7,20.8z"/>
<path d="M78.8,55.4L104.1,28c0.3-0.4,0.9-0.6,1.4-0.4c3.7,1.4,11.5,2.9,14.7,1.1c0.1,0,1.6-1.3,1.7-1.4c2.9-2.7,7-1.5,9.4,1.2
	c0.1,0.2,0.2,0.3,0.3,0.5c3.7,15.6,9,20.4,18.1,21c0.2,0,0.4,0.1,0.5,0.2c3.8,2.3,2.4,6.5-2.1,8.9c-8.2,4.9-15.9,5.1-24.7,0.6
	c0,0-0.1,0-0.1-0.1c-4.9-2.8-8.6-6.3-11.5-10.3c-0.4-0.6-2,0.7-2.6,1.1c-9.1,8.1-16.7,12.3-24,14c-0.5,0.1-0.9-0.1-1.2-0.4l-5.1-7.1
	C78.5,56.5,78.5,55.9,78.8,55.4z"/>
<path d="M29.6,85.9c2-0.1,3.7-1.3,4.5-3.1C39.7,70.5,46.8,60,59,55.4l11.6-4.5c0.3-0.1,0.6-0.2,0.9-0.3c3.7-0.7,6.9,0.4,9.8,2.6
	c0.5,0.4,0.9,0.9,1.3,1.5l5.5,9.1c0.2,0.3,0.4,0.5,0.6,0.8c3.9,4.4,5.7,11.1,6.2,19.1c0,0.1,0,0.2,0,0.4v7.2c0,2,1.1,3.8,2.8,4.7
	c4.6,2.4,8,5.3,10.2,8.8c0.4,0.6,0.6,1.4,0.7,2.1c0.3,3.2-0.6,5.6-2.2,7.5c-0.2,0.2-0.3,0.3-0.5,0.5c-4.2,5.2-18,8-18.8,8.1
	c-1.2,0.1-4,0-6.4,0c-1.5,0-2.9,0.7-3.9,1.8c-3.4,3.8-8.2,6.8-13.9,9.2c-0.4,0.2-0.9,0.3-1.4,0.4c-5.2,0.6-10-0.1-14.1-2.5
	c-5.8-3.2-10.4-7.5-13.6-13.1c-0.5-0.9-1.3-1.6-2.2-2c-3.7-1.8-6.6-3.9-8.6-6.5c-0.6-0.7-1.4-1.3-2.3-1.6c-4.2-1.3-6.9-4.2-8.4-8.4
	c-0.8-2.4-0.4-5,1-7c2.1-2.9,4.8-5.1,8.2-6.5c0.5-0.2,1.1-0.3,1.7-0.4L29.6,85.9z"/>
<path class="st0" d="M16,28.4c-1.3-1.8,0-4.3,2.2-4.3C30.6,24.2,40.7,21,44.6,9.2c1-1.5,2.1-2.1,3.3-0.3c0.2,0.2,0.3,0.4,0.5,0.6
	c3,2.4,5.9,4.7,8.8,7c0.5,0.4,1.2,0.6,1.9,0.6c3.7-0.2,6.6,0.8,7.4,4.9c0,0.1,0,0.3,0.1,0.4l1.9,27.4c0.1,0.8-0.2,1.6-0.8,2.2
	c-2.1,2-4.4,3-7,1c-5.1-5.8-9.3-12.3-12.6-19.5c-0.3-0.6-0.7-1-1.2-1.3c-1.7-0.8-3.6-0.5-5.7,0.1c-5.5,2-11.8,2.2-18.8,1
	c-0.4-0.1-0.8-0.3-1.2-0.5C19.3,31.2,17.1,29.8,16,28.4z"/>
<path class="st1" d="M65.9,19.9c0.2,0.4,0.1,0.9-0.2,1.2C60.3,25.3,54,29,47.1,32.3c-0.2-0.2-0.5-0.3-0.7-0.4
	c-1.6-0.6-3.4-0.3-5.3,0.2c-5.5,2-11.9,2.2-19,1c-0.5-0.1-0.9-0.3-1.3-0.6c-1.5-1.2-3.3-2.3-4.5-3.5c-1.9-1.9-0.5-5,2.2-5
	c12.3,0,22.3-3.3,26.1-14.9c1-1.5,2.1-2,3.3-0.4c0.2,0.2,0.4,0.5,0.6,0.6c2.9,2.2,5.7,4.5,8.5,6.7c0.8,0.6,1.7,0.9,2.7,0.9
	C62.3,16.9,64.7,17.6,65.9,19.9z"/>
<path class="st1" d="M145.2,58.1c-6.2,1.9-12,1.2-19.7-1.1c-0.6-0.2-1.1-0.5-1.6-0.8c-4.4-3.2-7.9-5.8-11.2-10.6
	c-0.1-0.1-0.2-0.3-0.2-0.4l-0.3-0.5l-6.3-11.3l1.2-1.4c0.1-0.1,0.3-0.3,0.5-0.3l0,0c0.3,0,0.6,0.1,0.9,0.4l0,0
	c0.6,0.4,1.1,0.8,1.8,0.9c3.7,0.7,6.8-0.3,10.4-1.5c0.7-0.2,1.8-0.8,2.4-1.3c2.8-2.2,4.4-1.8,4.9,0.8c4.2,12.2,10.7,19,19.1,22.2
	C149.7,54.9,148.5,57.1,145.2,58.1z"/>
<path class="st0" d="M107.5,31.7L107.5,31.7c-0.2,0-0.4,0.1-0.5,0.3l-1.2,1.4L89.6,51.8c-0.4,0.5-0.6,1.1-0.6,1.7v1.6
	c0,0.3,0.2,0.5,0.5,0.5h7.3c0.8,0,1.5-0.3,2.1-0.7l13.2-10.1l0.8-0.6l-4.4-11.8c0-0.1-0.1-0.1-0.1-0.2L107.5,31.7z"/>
<path class="st2" d="M37.4,117c-3-1.2-8.7-3.9-13.7-9.6c-3.1-3.5-5.5-6.9-6.6-9.7c-0.6-1.4-0.2-3,0.9-4c1.2-1.1,3.2-2.3,5.1-3.3
	c5.3-2.7,10.3-2.2,12.4-1.9l26.2,2.2c0.5,0,1,0.1,1.5,0.3c9,2.9,18.7,4.8,29.1,5.7c5.5,2,13.3,4.4,10.4,13.4
	c-0.2,0.6-0.1,1.2-0.5,1.7c-2.8,4.4-12.4,6.7-24.8,8.1c-4.7,6-10.7,9.8-17.5,12c-4.8,0.8-9,0.2-12.5-2.6
	C42.9,126.3,39.1,122.6,37.4,117z"/>
<path class="st1" d="M36.4,88.7c7.3,1.5,15.2,2.1,22.6,1.7c0.4,0,0.9,0,1.3,0.1c4.9,1.2,9.4,2.7,13.3,4.2c0.8,0.3,1.7,0.5,2.5,0.4
	c4.7-0.2,11.4,2.2,15.8,2.4c0.5,0,0.9-0.4,0.9-0.9c0-11.7-3.3-25.6-9-33.5c-0.1-0.1-0.1-0.2-0.1-0.4c0.1-0.9,0.6-1.6,2.2-1.6
	c0.1,0,0.2,0,0.3-0.1l3.1-1.7c0.2-0.1,0.3-0.3,0.3-0.5c0.2-1.5-0.2-2.4-2.4-1.3c-2.3,1.1-4.7,1.3-7.1,0.4c-0.1,0-0.2-0.1-0.3-0.2
	c-3.1-4-7.1-6.2-13.8-2.9c-12.6,6.4-23.5,18.3-30.1,33C35.8,88.2,36.1,88.6,36.4,88.7z"/>
<path d="M40.7,94.8c-0.2,9.9,2,19.8,6.5,23.6c0,0,0,0,0.1,0c5.7,3.9,11.8,3.3,17-0.9c3.9-3,8-8.1,12.4-17.1c0.1-0.3-0.1-0.6-0.4-0.6
	h-2.5c-0.2,0-0.3,0.1-0.4,0.3c-0.9,2.4-4,3.5-9.7,3.1c-0.2,0-0.3,0.1-0.4,0.2c-1.8,3.2-3.7,5.9-6.2,8.9c-1.5,1.4-4.9,0.5-5.5-1.8
	c-0.5-3.3-0.8-6.8-1-10.5c0-0.2-0.1-0.3-0.3-0.4c-2.5-0.6-4.7-1.9-6.5-4.5c-0.1-0.1-0.1-0.1-0.2-0.2l-2.2-0.6
	C40.9,94.4,40.7,94.6,40.7,94.8z"/>
<path class="st3" d="M49.9,115.3c-0.9,1.3-1.4,3.2-1.5,5.2c0.8,4.6,3.9,3.6,7.1,1.1l6-3.5c0.9-2.3,1.3-4.4-2-4.1h-6.6
	C51.6,113.9,50.5,114.4,49.9,115.3z"/>
<path d="M52.5,93.4c1.6,0.4,2.9,1.3,3.5,2.2c0.1,0.1,0.1,0.2,0.1,0.3l-0.2,3c0,0.3-0.7,0.4-1,0.4h-1.6l0.5,0.8
	c1,0.1,1.9,0.3,2.7,0.7c0.5,0.2,0.9-0.2,0.9-0.6c-0.5-3,0.8-5,4.9-5.4c0.6,0,0.8-0.7,0.3-1c-2.9-1.8-6.2-2.3-10-1.4
	C51.9,92.4,51.9,93.2,52.5,93.4z"/>
<path class="st4" d="M54,37.4l5.7,9.6c0.3,0.5,0.8,0.8,1.4,0.7c1.4-0.1,2.4-0.5,3.1-1.1c0.4-0.3,0.5-0.8,0.5-1.3v-13
	c0-0.5-0.2-0.9-0.5-1.3c-1.3-1.3-2.8-1.7-4.7-0.9c-0.2,0.1-0.4,0.3-0.6,0.4l-4.7,5.3C53.7,36.4,53.7,37,54,37.4z"/>
<path class="st4" d="M96.3,47.2l5.9-7c0.4-0.4,1-0.6,1.5-0.4l2.1,0.8c0.4,0.2,0.7,0.6,0.8,1l0.3,2.7c0.1,0.6-0.2,1.1-0.7,1.3
	l-8.1,3.8c-0.2,0.1-0.5,0.1-0.7-0.1l-1-1C96.1,48,96,47.5,96.3,47.2z"/>
<path class="st5" d="M26.6,78.8h-6.5c-0.5,0-0.9,0.3-1.2,0.7c-0.3,0.6-0.9,1-1.6,1.2c-3.2,0.6-5-0.7-5.8-3.4
	c-0.3-0.9-0.3-1.9,0.1-2.7c0.3-0.7,0.9-1.3,1.6-1.7c1-0.6,2.1-0.7,3.2-0.6c3.5,0.5,6.5,1.9,9.1,4.1c0.1,0.1,0.1,0.1,0.2,0.2l1.4,1.6
	L26.6,78.8z"/>
<path class="st6" d="M86.3,103.3c0.4,0.7,0.6,1.6,0.4,2.4"/>
<path class="st6" d="M83.3,103.3c0.4,0.7,0.6,1.6,0.4,2.4"/>
<path class="st6" d="M43.4,117.8c1.8,3.1,4.4,5.5,8,7.3c1.2,0.6,2.5,0.8,3.8,0.7c4.8-0.4,8.5-1.8,10.6-4.7"/>
<path class="st6" d="M58.1,113.4c-2.2,1.2-4,3.2-4.8,5.6"/>
<path class="st6" d="M55,99.2c-17-3.4-33.9-3.4-50.9,0"/>
<path class="st6" d="M53.6,97.5c-19.2-4.1-35.7-4.9-50.3-3.7"/>
<path class="st6" d="M67.6,99.2c17.5,0.2,34.2,1.3,45.7,5.1"/>
<path class="st6" d="M65.9,99.2c17.3-1.5,34.5-3.1,44.9,0"/>
<path class="st6" d="M69,57.1c-7.3,4.8-6,6.4,0.8,5.9l0.8-0.5"/>
<path class="st6" d="M66.9,66.9c2.8-3.9,5.5-4,8.1-0.2"/>
<path class="st6" d="M67.5,66.1c2.4-4.8,4.7-5,6.9-0.3"/>
<path class="st6" d="M67.4,66.3c2.4-4.2,4.8-4.3,7.1-0.2"/>
<path class="st7" d="M71.6,57.1c1.5-0.6,2.7,0,3.4,1.8"/>
<path class="st7" d="M66,85.9c1.7-3.5,3.4-6.9,5-10.3"/>
<path class="st7" d="M87.6,93.3V77.4c0-0.5-0.1-1-0.2-1.5c-3.3-9.6-8.3-10-14.6-3.6"/>
<path class="st7" d="M40.6,80.9c3.4-5.3,6.8-9.3,10.2-11.8"/>
<path class="st7" d="M55,65.4c3.6-3.1,6.3-3.2,7.7,0.5c0.1,0.2,0.1,0.5,0.1,0.8v4.4"/>
<line class="st7" x1="62.1" y1="74.1" x2="59.5" y2="83.2"/>
<path class="st7" d="M80.1,93.7c-2.5-2.8-4.9-3.7-9.9-1.4"/>
<path class="st7" d="M82.3,91.1c1,1.4,2,2.8,3.4,3.4"/>
<path class="st7" d="M35.6,88c2.2-3.1,4.2-4.9,6.1-5.8"/>
<path class="st7" d="M63.9,89c1.1,2.3,2.8,2.6,4,0.4"/>
<path class="st7" d="M42.9,87.4c4-0.3,7.5-0.3,9.5,1.1"/>
<polygon class="st7" points="56.8,89.9 58.6,86.7 59.5,86.7 58.1,89.9 "/>
<line class="st7" x1="58.9" y1="87.3" x2="57.8" y2="89.3"/>
<polygon class="st7" points="60.3,86.7 58.9,89.9 60.7,90.3 61.2,86.7 "/>
<line class="st7" x1="60.8" y1="87.3" x2="60.1" y2="89.3"/>
<path class="st7" d="M57.9,88.5c-0.1,0.8-0.3,1.2-0.3,1.2"/>
<line class="st7" x1="58.9" y1="89.1" x2="60.6" y2="89.7"/>
<rect x="51.9" y="85.9" width="2.5" height="3.8"/>
<path d="M63.9,103.5"/>
<path d="M56.3,99.7c1,0.6,2.1,1.3,3.4,1.9c1.5,0.8,2.9,1.3,4.2,1.8"/>
<path d="M55.7,99.8c-0.9,0.1-1.9,0.2-3,0.2c-1.3,0-2.5,0-3.6-0.1"/>
</svg>
